<svg width="176" height="21" viewBox="0 0 176 21" fill="none" xmlns="http://www.w3.org/2000/svg">
<path d="M20 10.0087C20 15.5381 15.4853 20.0087 9.97059 20.0087C8.11765 20.0087 6.39706 19.5087 4.91177 18.6263C4.76471 18.5969 4.52941 18.6557 4.42647 18.6851C3.85294 18.8175 3.17647 19.0087 2.91176 19.0822C1.97059 19.244 1.51471 19.1704 1.26471 19.0087C1.05882 18.8763 1.10294 18.7146 1.11765 18.6851C1.14706 18.5969 1.19118 18.5675 1.26471 18.4793C1.36765 18.3763 1.54412 18.244 1.83824 17.8469C2.22059 17.2587 2.30882 16.6116 2.29412 16.3469C0.852941 14.6263 0 12.4057 0 10.0087C0 4.47926 4.45588 0.0380859 9.97059 0.0380859C15.4853 0.0380859 20 4.47926 20 10.0087ZM9.97059 17.6263C14.1618 17.6263 17.6176 14.1999 17.6176 10.0087C17.6176 5.8175 14.1618 2.42044 9.97059 2.42044C5.77941 2.42044 2.39706 5.8175 2.39706 10.0087C2.39706 14.1999 5.77941 17.6263 9.97059 17.6263Z" fill="#274769"/>
<path fill-rule="evenodd" clip-rule="evenodd" d="M16.4853 2.43515C14.7353 0.935145 12.4706 0.0380859 9.98529 0.0380859C4.47059 0.0380859 0 4.50868 0 10.0381C0 12.4499 0.852941 14.6557 2.26471 16.3763C2.27941 16.6557 2.17647 17.2587 1.79412 17.8469C1.5 18.244 1.33824 18.391 1.23529 18.494C1.14706 18.5675 1.11765 18.6116 1.08824 18.6999C1.07353 18.7293 1.07353 18.9204 1.27941 19.0528C1.52941 19.2146 1.98529 19.2734 2.92647 19.1263C3.19118 19.0528 3.88235 18.8616 4.44118 18.7293C4.54412 18.6999 4.79412 18.641 4.92647 18.6704C6.41177 19.5528 8.14706 20.0528 9.98529 20.0528C12.6471 20.0528 15.0735 19.0087 16.8676 17.3028C17 17.1263 17.0294 16.8763 17.0441 16.8028C17.0735 16.1116 16.3971 15.7881 16.2647 15.7293C15.8529 15.5381 15.1471 15.6999 14.8824 15.8469C13.5588 16.9646 11.8529 17.641 9.98529 17.641C5.79412 17.641 2.41176 14.244 2.41176 10.0528C2.41176 5.86162 5.80882 2.46456 9.98529 2.46456C11.6765 2.46456 13.25 3.02338 14.5147 3.96456L14.5 3.94985C14.6176 4.03809 15.0147 4.28809 15.7353 4.00868C16.0588 3.89103 16.5882 3.46456 16.6471 3.18515C16.6912 2.92044 16.5735 2.61162 16.4853 2.43515V2.43515Z" fill="#3399FF"/>
<path d="M13.6032 11.435C14.3826 11.435 15.0297 10.8026 15.0297 10.0085C15.0297 9.21438 14.3973 8.58203 13.6032 8.58203C12.8091 8.58203 12.1768 9.21438 12.1768 10.0085C12.1768 10.8026 12.8238 11.435 13.6032 11.435Z" fill="#59A2F6"/>
<path d="M9.97139 11.435C10.7508 11.435 11.3979 10.8026 11.3979 10.0085C11.3979 9.21438 10.7655 8.58203 9.97139 8.58203C9.17728 8.58203 8.54492 9.21438 8.54492 10.0085C8.54492 10.8026 9.17728 11.435 9.97139 11.435Z" fill="#4480C2"/>
<path d="M6.33858 11.435C7.11799 11.435 7.76505 10.8026 7.76505 10.0085C7.76505 9.21438 7.1327 8.58203 6.33858 8.58203C5.54446 8.58203 4.91211 9.21438 4.91211 10.0085C4.91211 10.7879 5.54446 11.435 6.33858 11.435V11.435Z" fill="#375D86"/>
<path d="M42.108 9.28977H39.983C39.9223 8.94129 39.8106 8.63258 39.6477 8.36364C39.4848 8.09091 39.2822 7.85985 39.0398 7.67045C38.7973 7.48106 38.5208 7.33901 38.2102 7.24432C37.9034 7.14583 37.572 7.09659 37.2159 7.09659C36.5833 7.09659 36.0227 7.25568 35.5341 7.57386C35.0455 7.88826 34.6629 8.35038 34.3864 8.96023C34.1098 9.56629 33.9716 10.3068 33.9716 11.1818C33.9716 12.072 34.1098 12.822 34.3864 13.4318C34.6667 14.0379 35.0492 14.4962 35.5341 14.8068C36.0227 15.1136 36.5814 15.267 37.2102 15.267C37.5587 15.267 37.8845 15.2216 38.1875 15.1307C38.4943 15.036 38.7689 14.8977 39.0114 14.7159C39.2576 14.5341 39.464 14.3106 39.6307 14.0455C39.8011 13.7803 39.9186 13.4773 39.983 13.1364L42.108 13.1477C42.0284 13.7008 41.8561 14.2197 41.5909 14.7045C41.3295 15.1894 40.9867 15.6174 40.5625 15.9886C40.1383 16.3561 39.642 16.6439 39.0739 16.8523C38.5057 17.0568 37.875 17.1591 37.1818 17.1591C36.1591 17.1591 35.2462 16.9223 34.4432 16.4489C33.6402 15.9754 33.0076 15.2917 32.5455 14.3977C32.0833 13.5038 31.8523 12.4318 31.8523 11.1818C31.8523 9.92803 32.0852 8.85606 32.5511 7.96591C33.017 7.07197 33.6515 6.38826 34.4545 5.91477C35.2576 5.44129 36.1667 5.20455 37.1818 5.20455C37.8295 5.20455 38.4318 5.29545 38.9886 5.47727C39.5455 5.65909 40.0417 5.92614 40.4773 6.27841C40.9129 6.62689 41.2708 7.05492 41.5511 7.5625C41.8352 8.06629 42.0208 8.64205 42.108 9.28977ZM46.0843 5.36364V17H44.0274V5.36364H46.0843ZM52.143 17.1705C51.268 17.1705 50.5123 16.9886 49.8759 16.625C49.2433 16.2576 48.7566 15.7386 48.4157 15.0682C48.0748 14.3939 47.9043 13.6004 47.9043 12.6875C47.9043 11.7898 48.0748 11.0019 48.4157 10.3239C48.7604 9.64205 49.2414 9.11174 49.8589 8.73295C50.4763 8.35038 51.2017 8.15909 52.035 8.15909C52.5729 8.15909 53.0805 8.24621 53.5577 8.42045C54.0388 8.59091 54.463 8.85606 54.8305 9.21591C55.2017 9.57576 55.4933 10.0341 55.7055 10.5909C55.9176 11.1439 56.0236 11.803 56.0236 12.5682V13.1989H48.8702V11.8125H54.052C54.0483 11.4186 53.963 11.0682 53.7964 10.7614C53.6297 10.4508 53.3967 10.2064 53.0975 10.0284C52.802 9.85038 52.4573 9.76136 52.0634 9.76136C51.643 9.76136 51.2736 9.86364 50.9555 10.0682C50.6373 10.2689 50.3892 10.5341 50.2111 10.8636C50.0369 11.1894 49.9479 11.5473 49.9441 11.9375V13.1477C49.9441 13.6553 50.0369 14.0909 50.2225 14.4545C50.4081 14.8144 50.6676 15.0909 51.0009 15.2841C51.3342 15.4735 51.7244 15.5682 52.1714 15.5682C52.4706 15.5682 52.7414 15.5265 52.9839 15.4432C53.2263 15.3561 53.4365 15.2292 53.6145 15.0625C53.7926 14.8958 53.927 14.6894 54.018 14.4432L55.9384 14.6591C55.8172 15.1667 55.5861 15.6098 55.2452 15.9886C54.9081 16.3636 54.4763 16.6553 53.9498 16.8636C53.4233 17.0682 52.821 17.1705 52.143 17.1705ZM57.8437 17V8.27273H59.838V9.72727H59.9289C60.088 9.22348 60.3607 8.83523 60.7471 8.5625C61.1373 8.28598 61.5823 8.14773 62.0823 8.14773C62.196 8.14773 62.3229 8.15341 62.463 8.16477C62.607 8.17235 62.7263 8.18561 62.821 8.20455V10.0966C62.7338 10.0663 62.5956 10.0398 62.4062 10.017C62.2206 9.99053 62.0407 9.97727 61.8664 9.97727C61.4914 9.97727 61.1543 10.0587 60.8551 10.2216C60.5596 10.3807 60.3266 10.6023 60.1562 10.8864C59.9857 11.1705 59.9005 11.4981 59.9005 11.8693V17H57.8437ZM66.1424 14.2614L66.1368 11.7784H66.4663L69.6027 8.27273H72.0061L68.1481 12.5682H67.722L66.1424 14.2614ZM64.2674 17V5.36364H66.3243V17H64.2674ZM69.7447 17L66.9038 13.0284L68.2902 11.5795L72.2049 17H69.7447ZM73.4568 17V8.27273H75.5136V17H73.4568ZM74.4909 7.03409C74.1652 7.03409 73.8849 6.92614 73.65 6.71023C73.4152 6.49053 73.2977 6.22727 73.2977 5.92045C73.2977 5.60985 73.4152 5.34659 73.65 5.13068C73.8849 4.91098 74.1652 4.80114 74.4909 4.80114C74.8205 4.80114 75.1008 4.91098 75.3318 5.13068C75.5667 5.34659 75.6841 5.60985 75.6841 5.92045C75.6841 6.22727 75.5667 6.49053 75.3318 6.71023C75.1008 6.92614 74.8205 7.03409 74.4909 7.03409ZM81.5723 17.1705C80.6973 17.1705 79.9416 16.9886 79.3053 16.625C78.6727 16.2576 78.186 15.7386 77.8451 15.0682C77.5041 14.3939 77.3337 13.6004 77.3337 12.6875C77.3337 11.7898 77.5041 11.0019 77.8451 10.3239C78.1898 9.64205 78.6708 9.11174 79.2882 8.73295C79.9057 8.35038 80.631 8.15909 81.4644 8.15909C82.0023 8.15909 82.5098 8.24621 82.9871 8.42045C83.4682 8.59091 83.8924 8.85606 84.2598 9.21591C84.631 9.57576 84.9227 10.0341 85.1348 10.5909C85.347 11.1439 85.453 11.803 85.453 12.5682V13.1989H78.2996V11.8125H83.4814C83.4776 11.4186 83.3924 11.0682 83.2257 10.7614C83.0591 10.4508 82.8261 10.2064 82.5269 10.0284C82.2314 9.85038 81.8867 9.76136 81.4928 9.76136C81.0723 9.76136 80.703 9.86364 80.3848 10.0682C80.0666 10.2689 79.8185 10.5341 79.6405 10.8636C79.4663 11.1894 79.3773 11.5473 79.3735 11.9375V13.1477C79.3735 13.6553 79.4663 14.0909 79.6519 14.4545C79.8375 14.8144 80.097 15.0909 80.4303 15.2841C80.7636 15.4735 81.1538 15.5682 81.6007 15.5682C81.9 15.5682 82.1708 15.5265 82.4132 15.4432C82.6557 15.3561 82.8659 15.2292 83.0439 15.0625C83.222 14.8958 83.3564 14.6894 83.4473 14.4432L85.3678 14.6591C85.2466 15.1667 85.0155 15.6098 84.6746 15.9886C84.3375 16.3636 83.9057 16.6553 83.3791 16.8636C82.8526 17.0682 82.2504 17.1705 81.5723 17.1705ZM101.373 9.28977H99.248C99.1873 8.94129 99.0756 8.63258 98.9127 8.36364C98.7498 8.09091 98.5472 7.85985 98.3048 7.67045C98.0623 7.48106 97.7858 7.33901 97.4752 7.24432C97.1684 7.14583 96.837 7.09659 96.4809 7.09659C95.8483 7.09659 95.2877 7.25568 94.7991 7.57386C94.3105 7.88826 93.9279 8.35038 93.6514 8.96023C93.3748 9.56629 93.2366 10.3068 93.2366 11.1818C93.2366 12.072 93.3748 12.822 93.6514 13.4318C93.9317 14.0379 94.3142 14.4962 94.7991 14.8068C95.2877 15.1136 95.8464 15.267 96.4752 15.267C96.8237 15.267 97.1495 15.2216 97.4525 15.1307C97.7593 15.036 98.0339 14.8977 98.2764 14.7159C98.5226 14.5341 98.729 14.3106 98.8957 14.0455C99.0661 13.7803 99.1836 13.4773 99.248 13.1364L101.373 13.1477C101.293 13.7008 101.121 14.2197 100.856 14.7045C100.595 15.1894 100.252 15.6174 99.8275 15.9886C99.4033 16.3561 98.907 16.6439 98.3389 16.8523C97.7707 17.0568 97.14 17.1591 96.4468 17.1591C95.4241 17.1591 94.5112 16.9223 93.7082 16.4489C92.9052 15.9754 92.2726 15.2917 91.8105 14.3977C91.3483 13.5038 91.1173 12.4318 91.1173 11.1818C91.1173 9.92803 91.3502 8.85606 91.8161 7.96591C92.282 7.07197 92.9165 6.38826 93.7195 5.91477C94.5226 5.44129 95.4317 5.20455 96.4468 5.20455C97.0945 5.20455 97.6968 5.29545 98.2536 5.47727C98.8105 5.65909 99.3067 5.92614 99.7423 6.27841C100.178 6.62689 100.536 7.05492 100.816 7.5625C101.1 8.06629 101.286 8.64205 101.373 9.28977ZM105.349 11.8864V17H103.292V5.36364H105.304V9.75568H105.406C105.611 9.26326 105.927 8.875 106.355 8.59091C106.787 8.30303 107.336 8.15909 108.003 8.15909C108.609 8.15909 109.137 8.28598 109.588 8.53977C110.039 8.79356 110.387 9.16477 110.633 9.65341C110.883 10.142 111.008 10.7386 111.008 11.4432V17H108.952V11.7614C108.952 11.1742 108.8 10.7178 108.497 10.392C108.198 10.0625 107.777 9.89773 107.236 9.89773C106.872 9.89773 106.546 9.97727 106.258 10.1364C105.974 10.2917 105.751 10.517 105.588 10.8125C105.429 11.108 105.349 11.4659 105.349 11.8864ZM115.696 17.1761C115.143 17.1761 114.645 17.0777 114.202 16.8807C113.763 16.6799 113.414 16.3845 113.157 15.9943C112.903 15.6042 112.776 15.1231 112.776 14.5511C112.776 14.0587 112.867 13.6515 113.049 13.3295C113.23 13.0076 113.479 12.75 113.793 12.5568C114.107 12.3636 114.461 12.2178 114.855 12.1193C115.253 12.017 115.664 11.9432 116.088 11.8977C116.6 11.8447 117.014 11.7973 117.333 11.7557C117.651 11.7102 117.882 11.642 118.026 11.5511C118.174 11.4564 118.247 11.3106 118.247 11.1136V11.0795C118.247 10.6515 118.121 10.3201 117.867 10.0852C117.613 9.85038 117.247 9.73295 116.77 9.73295C116.266 9.73295 115.867 9.8428 115.571 10.0625C115.28 10.2822 115.083 10.5417 114.98 10.8409L113.06 10.5682C113.211 10.0379 113.461 9.5947 113.81 9.23864C114.158 8.87879 114.585 8.60985 115.088 8.43182C115.592 8.25 116.149 8.15909 116.759 8.15909C117.179 8.15909 117.598 8.20833 118.014 8.30682C118.431 8.4053 118.812 8.56818 119.157 8.79545C119.501 9.01894 119.778 9.32386 119.986 9.71023C120.198 10.0966 120.304 10.5795 120.304 11.1591V17H118.327V15.8011H118.259C118.134 16.0436 117.958 16.2708 117.73 16.483C117.507 16.6913 117.225 16.8598 116.884 16.9886C116.547 17.1136 116.151 17.1761 115.696 17.1761ZM116.23 15.6648C116.643 15.6648 117.001 15.5833 117.304 15.4205C117.607 15.2538 117.84 15.0341 118.003 14.7614C118.17 14.4886 118.253 14.1913 118.253 13.8693V12.8409C118.189 12.8939 118.079 12.9432 117.924 12.9886C117.772 13.0341 117.602 13.0739 117.412 13.108C117.223 13.142 117.035 13.1723 116.85 13.1989C116.664 13.2254 116.503 13.2481 116.367 13.267C116.06 13.3087 115.785 13.3769 115.543 13.4716C115.3 13.5663 115.109 13.6989 114.969 13.8693C114.829 14.036 114.759 14.2519 114.759 14.517C114.759 14.8958 114.897 15.1818 115.174 15.375C115.45 15.5682 115.802 15.6648 116.23 15.6648ZM124.509 5.36364V17H122.452V5.36364H124.509ZM128.761 5.36364V17H126.704V5.36364H128.761ZM134.82 17.1705C133.945 17.1705 133.189 16.9886 132.553 16.625C131.92 16.2576 131.433 15.7386 131.093 15.0682C130.752 14.3939 130.581 13.6004 130.581 12.6875C130.581 11.7898 130.752 11.0019 131.093 10.3239C131.437 9.64205 131.918 9.11174 132.536 8.73295C133.153 8.35038 133.879 8.15909 134.712 8.15909C135.25 8.15909 135.757 8.24621 136.235 8.42045C136.716 8.59091 137.14 8.85606 137.507 9.21591C137.879 9.57576 138.17 10.0341 138.382 10.5909C138.594 11.1439 138.701 11.803 138.701 12.5682V13.1989H131.547V11.8125H136.729C136.725 11.4186 136.64 11.0682 136.473 10.7614C136.307 10.4508 136.074 10.2064 135.774 10.0284C135.479 9.85038 135.134 9.76136 134.74 9.76136C134.32 9.76136 133.951 9.86364 133.632 10.0682C133.314 10.2689 133.066 10.5341 132.888 10.8636C132.714 11.1894 132.625 11.5473 132.621 11.9375V13.1477C132.621 13.6553 132.714 14.0909 132.899 14.4545C133.085 14.8144 133.344 15.0909 133.678 15.2841C134.011 15.4735 134.401 15.5682 134.848 15.5682C135.147 15.5682 135.418 15.5265 135.661 15.4432C135.903 15.3561 136.113 15.2292 136.291 15.0625C136.469 14.8958 136.604 14.6894 136.695 14.4432L138.615 14.6591C138.494 15.1667 138.263 15.6098 137.922 15.9886C137.585 16.3636 137.153 16.6553 136.627 16.8636C136.1 17.0682 135.498 17.1705 134.82 17.1705ZM142.577 11.8864V17H140.521V8.27273H142.486V9.75568H142.589C142.79 9.26705 143.11 8.87879 143.549 8.59091C143.992 8.30303 144.54 8.15909 145.191 8.15909C145.793 8.15909 146.318 8.28788 146.765 8.54545C147.216 8.80303 147.564 9.17614 147.81 9.66477C148.06 10.1534 148.183 10.7462 148.18 11.4432V17H146.123V11.7614C146.123 11.178 145.971 10.7216 145.668 10.392C145.369 10.0625 144.954 9.89773 144.424 9.89773C144.064 9.89773 143.744 9.97727 143.464 10.1364C143.187 10.2917 142.969 10.517 142.81 10.8125C142.655 11.108 142.577 11.4659 142.577 11.8864ZM154.146 20.4545C153.407 20.4545 152.773 20.3542 152.243 20.1534C151.712 19.9564 151.286 19.6913 150.964 19.358C150.642 19.0246 150.419 18.6553 150.294 18.25L152.146 17.8011C152.229 17.9716 152.351 18.1402 152.51 18.3068C152.669 18.4773 152.883 18.6174 153.152 18.7273C153.424 18.8409 153.767 18.8977 154.18 18.8977C154.763 18.8977 155.246 18.7557 155.629 18.4716C156.012 18.1913 156.203 17.7292 156.203 17.0852V15.4318H156.101C155.995 15.6439 155.839 15.8617 155.635 16.0852C155.434 16.3087 155.167 16.4962 154.834 16.6477C154.504 16.7992 154.089 16.875 153.589 16.875C152.919 16.875 152.311 16.7178 151.765 16.4034C151.224 16.0852 150.792 15.6117 150.47 14.983C150.152 14.3504 149.993 13.5587 149.993 12.608C149.993 11.6496 150.152 10.8409 150.47 10.1818C150.792 9.51894 151.226 9.01705 151.771 8.67614C152.316 8.33144 152.924 8.15909 153.595 8.15909C154.106 8.15909 154.527 8.24621 154.856 8.42045C155.19 8.59091 155.455 8.79735 155.652 9.03977C155.849 9.27841 155.998 9.50379 156.101 9.71591H156.214V8.27273H158.243V17.142C158.243 17.8883 158.065 18.5057 157.709 18.9943C157.352 19.483 156.866 19.8485 156.248 20.0909C155.631 20.3333 154.93 20.4545 154.146 20.4545ZM154.163 15.2614C154.599 15.2614 154.97 15.1553 155.277 14.9432C155.584 14.7311 155.816 14.4261 155.976 14.0284C156.135 13.6307 156.214 13.1534 156.214 12.5966C156.214 12.0473 156.135 11.5663 155.976 11.1534C155.82 10.7405 155.589 10.4205 155.282 10.1932C154.979 9.96212 154.606 9.84659 154.163 9.84659C153.705 9.84659 153.322 9.96591 153.015 10.2045C152.709 10.4432 152.477 10.7708 152.322 11.1875C152.167 11.6004 152.089 12.0701 152.089 12.5966C152.089 13.1307 152.167 13.5985 152.322 14C152.481 14.3977 152.714 14.7083 153.021 14.9318C153.332 15.1515 153.712 15.2614 154.163 15.2614ZM164.294 17.1705C163.419 17.1705 162.664 16.9886 162.027 16.625C161.395 16.2576 160.908 15.7386 160.567 15.0682C160.226 14.3939 160.056 13.6004 160.056 12.6875C160.056 11.7898 160.226 11.0019 160.567 10.3239C160.912 9.64205 161.393 9.11174 162.01 8.73295C162.628 8.35038 163.353 8.15909 164.186 8.15909C164.724 8.15909 165.232 8.24621 165.709 8.42045C166.19 8.59091 166.614 8.85606 166.982 9.21591C167.353 9.57576 167.645 10.0341 167.857 10.5909C168.069 11.1439 168.175 11.803 168.175 12.5682V13.1989H161.021V11.8125H166.203C166.2 11.4186 166.114 11.0682 165.948 10.7614C165.781 10.4508 165.548 10.2064 165.249 10.0284C164.953 9.85038 164.609 9.76136 164.215 9.76136C163.794 9.76136 163.425 9.86364 163.107 10.0682C162.789 10.2689 162.54 10.5341 162.362 10.8636C162.188 11.1894 162.099 11.5473 162.095 11.9375V13.1477C162.095 13.6553 162.188 14.0909 162.374 14.4545C162.559 14.8144 162.819 15.0909 163.152 15.2841C163.485 15.4735 163.876 15.5682 164.323 15.5682C164.622 15.5682 164.893 15.5265 165.135 15.4432C165.378 15.3561 165.588 15.2292 165.766 15.0625C165.944 14.8958 166.078 14.6894 166.169 14.4432L168.09 14.6591C167.968 15.1667 167.737 15.6098 167.396 15.9886C167.059 16.3636 166.628 16.6553 166.101 16.8636C165.575 17.0682 164.972 17.1705 164.294 17.1705Z" fill="white"/>
</svg>
